<svg width="70" height="70" viewBox="0 0 70 70" fill="none" xmlns="http://www.w3.org/2000/svg">
<path d="M32 66.8C24.3618 66.8 17.0364 63.7657 11.6353 58.3647C6.23428 52.9636 3.2 45.6382 3.2 38C3.2 30.3618 6.23428 23.0364 11.6353 17.6353C17.0364 12.2343 24.3618 9.2 32 9.2C39.6382 9.2 46.9636 12.2343 52.3647 17.6353C57.7657 23.0364 60.8 30.3618 60.8 38C60.8 45.6382 57.7657 52.9636 52.3647 58.3647C46.9636 63.7657 39.6382 66.8 32 66.8ZM32 6C27.7977 6 23.6365 6.8277 19.7541 8.43586C15.8717 10.044 12.3441 12.4011 9.37258 15.3726C3.37142 21.3737 0 29.5131 0 38C0 46.4869 3.37142 54.6263 9.37258 60.6274C12.3441 63.5989 15.8717 65.956 19.7541 67.5641C23.6365 69.1723 27.7977 70 32 70C40.4869 70 48.6263 66.6286 54.6274 60.6274C60.6286 54.6263 64 46.4869 64 38C64 33.7977 63.1723 29.6365 61.5641 25.7541C59.956 21.8717 57.5989 18.3441 54.6274 15.3726C51.6559 12.4011 48.1283 10.044 44.2459 8.43586C40.3635 6.8277 36.2023 6 32 6ZM27.048 16.4V19.5472H17.0442V56.3834L27.048 56.3917V59.5766L45.3136 56.2957L45.3325 19.7037L27.048 16.4ZM30.0774 36.543C30.6909 36.543 31.1882 37.1901 31.1882 37.9882C31.1882 38.7866 30.6912 39.4336 30.0774 39.4336C29.4637 39.4336 28.9667 38.7866 28.9667 37.9882C28.9667 37.1901 29.464 36.543 30.0774 36.543ZM20.0144 53.4157V22.5174H27.048V53.4211L20.0144 53.4157Z" fill="#88181A"/>
<path d="M51 1.03125L62.875 5.15625V14.4375C62.875 20.5219 58.125 25.9875 51 28.875C43.875 25.9875 39.125 20.5219 39.125 14.4375V5.15625L51 1.03125Z" fill="#008000"/>
<path d="M48.9219 18.498L45.0625 15.1465L43.1328 16.8223L48.9219 21.8496L59.6094 12.5684L57.6797 10.8926L48.9219 18.498Z" fill="white"/>
</svg>
