<svg width="64" height="64" viewBox="0 0 64 64" fill="none" xmlns="http://www.w3.org/2000/svg">
<path d="M32 60.8C24.3618 60.8 17.0364 57.7657 11.6353 52.3647C6.23428 46.9636 3.2 39.6382 3.2 32C3.2 24.3618 6.23428 17.0364 11.6353 11.6353C17.0364 6.23428 24.3618 3.2 32 3.2C39.6382 3.2 46.9636 6.23428 52.3647 11.6353C57.7657 17.0364 60.8 24.3618 60.8 32C60.8 39.6382 57.7657 46.9636 52.3647 52.3647C46.9636 57.7657 39.6382 60.8 32 60.8ZM32 0C27.7977 0 23.6365 0.827705 19.7541 2.43586C15.8717 4.04401 12.3441 6.40111 9.37258 9.37258C3.37142 15.3737 0 23.5131 0 32C0 40.4869 3.37142 48.6263 9.37258 54.6274C12.3441 57.5989 15.8717 59.956 19.7541 61.5641C23.6365 63.1723 27.7977 64 32 64C40.4869 64 48.6263 60.6286 54.6274 54.6274C60.6286 48.6263 64 40.4869 64 32C64 27.7977 63.1723 23.6365 61.5641 19.7541C59.956 15.8717 57.5989 12.3441 54.6274 9.37258C51.6559 6.40111 48.1283 4.04401 44.2459 2.43586C40.3635 0.827705 36.2023 0 32 0ZM27.048 10.4V13.5472H17.0442V50.3834L27.048 50.3917V53.5766L45.3136 50.2957L45.3325 13.7037L27.048 10.4ZM30.0774 30.543C30.6909 30.543 31.1882 31.1901 31.1882 31.9882C31.1882 32.7866 30.6912 33.4336 30.0774 33.4336C29.4637 33.4336 28.9667 32.7866 28.9667 31.9882C28.9667 31.1901 29.464 30.543 30.0774 30.543ZM20.0144 47.4157V16.5174H27.048V47.4211L20.0144 47.4157Z" fill="#88181A"/>
</svg>
